<svg xmlns="http://www.w3.org/2000/svg" width="86" height="72" viewBox="0 0 86 72">
    <g fill="#4C721D" fill-rule="evenodd">
        <path d="M47.918 33C46.33 33 46 34.567 46 37.405 46 40 46.132 42 47.95 42 49.9 42 50 40.243 50 37.595 50 35.244 49.934 33 47.918 33"/>
        <path d="M62.721 50.365c-.732 0-1.381 0-1.973-.056v-3.22a7.59 7.59 0 0 0 1.128.114c.874 0 1.663-.368 1.916-1.694L59.48 30.12h4.735l1.86 10.7h.057l1.775-10.7h4.567l-4.087 15.388c-1.044 3.925-2.114 4.856-5.666 4.856zm-8.061-4.97h4.566V25.237H54.66v20.16zm-5.268.396c-1.268 0-2.65-.423-3.41-2.061h-.057v6.635H41.36V30.121h4.397v1.863h.057c.338-1.044 1.268-2.259 3.297-2.259 3.072 0 4.707 2.203 4.707 7.906 0 4.743-.676 8.16-4.425 8.16zm-15.598 0c-3.438 0-6.623-1.045-6.623-5.252V39.24h4.566v.706c0 1.525.423 2.683 2.057 2.683 1.663 0 2.142-1.242 2.142-2.4 0-4.348-8.653-1.92-8.653-9.459 0-3.219 1.72-5.93 6.596-5.93 4.735 0 6.426 2.4 6.426 5.507v.48H35.74c0-.96-.112-1.666-.394-2.118-.282-.48-.733-.706-1.438-.706-1.184 0-1.889.706-1.888 2.174 0 4.207 8.653 2.09 8.653 9.205 0 4.574-2.537 6.409-6.878 6.409zm-7.3-7.059c0 3.953-1.127 7.059-6.624 7.059-5.496 0-6.624-3.106-6.624-7.059V25.236h4.736v14.88c0 1.581.62 2.513 1.888 2.513 1.269 0 1.889-.932 1.889-2.513v-14.88h4.735v13.496zM67.35 0L0 30.037 18.65 72 86 41.963 67.35 0z"/>
    </g>
</svg>
