<?xml version="1.0" standalone="no"?>
<!DOCTYPE svg PUBLIC "-//W3C//DTD SVG 20010904//EN"
 "http://www.w3.org/TR/2001/REC-SVG-20010904/DTD/svg10.dtd">
<svg version="1.0" xmlns="http://www.w3.org/2000/svg"
 width="1440.000000pt" height="1440.000000pt" viewBox="0 0 1440.000000 1440.000000"
 preserveAspectRatio="xMidYMid meet">
<metadata>
Created by potrace 1.11, written by Peter Selinger 2001-2013
</metadata>
<g transform="translate(0.000000,1440.000000) scale(0.100000,-0.100000)"
fill="#000000" stroke="none">
<path d="M3790 13679 l0 -721 55 4 c30 1 55 1 55 -2 0 -6 100 -2 117 4 7 3 13
1 13 -4 0 -5 13 -5 30 0 17 5 30 5 30 2 0 -4 29 -5 65 -2 36 3 65 3 65 0 0 -6
99 -3 116 4 6 2 17 0 24 -4 8 -5 21 -5 30 0 9 5 21 5 28 1 6 -4 37 -4 67 -1
30 3 55 4 55 1 0 -7 99 -4 117 3 7 3 13 1 13 -4 0 -5 13 -5 30 0 17 5 30 5 30
2 0 -4 29 -5 65 -2 36 3 65 3 65 0 0 -3 17 -4 37 -3 47 2 93 3 116 3 39 0 54
0 97 1 25 1 51 1 58 0 6 0 19 -1 27 -1 39 0 54 0 108 -1 31 0 62 3 67 6 6 3
10 3 10 -2 0 -4 19 -7 42 -5 24 1 49 3 56 2 6 0 19 0 27 0 8 0 22 0 30 0 8 0
21 0 28 0 6 -1 29 1 50 2 21 2 41 0 43 -4 3 -4 16 -3 29 2 13 5 26 6 29 2 5
-8 63 -8 72 0 3 4 19 2 35 -2 16 -5 29 -5 29 0 0 4 12 5 28 1 15 -4 39 -4 55
0 15 4 27 4 27 -1 0 -5 13 -5 30 0 19 5 30 5 30 -1 0 -6 5 -7 10 -4 6 4 32 6
58 6 45 -1 60 -1 100 -1 9 0 43 0 75 -1 31 0 62 3 67 6 6 3 10 2 10 -2 0 -5
27 -6 61 -3 33 3 62 3 65 -1 2 -4 18 -4 34 1 17 5 30 6 30 2 0 -8 97 -5 117 2
7 3 13 2 13 -2 0 -4 19 -6 42 -4 24 1 49 3 56 2 6 0 19 0 27 0 8 0 22 0 30 0
8 0 21 0 28 0 6 -1 29 1 50 2 21 2 41 0 43 -4 3 -4 16 -3 29 2 13 5 26 6 29 2
5 -8 63 -8 72 0 3 4 19 2 35 -2 16 -5 29 -5 29 0 0 5 12 5 28 1 15 -4 39 -4
55 0 15 4 27 3 27 -1 0 -5 13 -5 30 0 19 5 30 5 30 -1 0 -6 5 -7 10 -4 6 4 32
6 58 6 45 -1 60 -1 100 -1 9 0 43 0 75 -1 31 0 62 3 67 6 6 3 10 2 10 -2 0 -5
27 -6 60 -3 33 3 60 3 60 0 0 -6 99 -3 117 4 7 3 13 1 13 -4 0 -5 13 -5 30 0
17 5 30 5 30 2 0 -4 29 -5 65 -2 36 3 65 3 65 0 0 -6 99 -3 116 4 6 2 17 0 24
-4 8 -5 21 -5 30 0 9 5 21 5 28 1 6 -4 37 -4 67 -1 30 3 55 4 55 1 0 -7 99 -4
117 3 7 3 13 1 13 -4 0 -5 13 -5 30 0 17 5 30 5 30 2 0 -4 29 -5 65 -2 36 3
65 3 65 0 0 -3 17 -4 37 -3 47 2 93 3 116 3 9 0 25 0 35 0 9 0 38 0 64 -1 26
0 52 2 58 6 5 3 10 2 10 -4 0 -6 11 -6 30 -1 17 5 30 5 30 0 0 -5 12 -5 28 -1
15 4 39 4 55 0 15 -4 27 -3 27 1 0 5 14 5 30 0 18 -5 30 -5 30 0 0 6 10 6 25
0 14 -5 27 -5 30 0 3 5 18 5 35 0 17 -5 30 -5 30 0 0 5 12 5 28 1 15 -4 39 -4
55 0 15 4 27 3 27 -1 0 -5 13 -5 30 0 19 5 30 5 30 -1 0 -6 5 -7 10 -4 6 4 32
6 58 6 45 -1 60 -1 100 -1 9 0 43 0 75 -1 31 0 62 3 67 6 6 3 10 3 10 -2 0 -4
19 -7 42 -5 24 1 49 3 56 2 6 0 19 0 27 0 8 0 22 0 30 0 8 0 21 0 28 0 6 -1
29 1 50 2 21 2 41 0 43 -4 3 -4 16 -3 29 2 13 5 26 6 29 2 5 -8 63 -8 72 0 3
4 19 2 35 -2 16 -5 29 -5 29 0 0 5 12 5 28 1 15 -4 39 -4 55 0 15 4 27 3 27
-1 0 -5 14 -5 30 0 19 5 30 5 30 -1 0 -6 5 -7 11 -3 6 3 31 6 55 6 l44 -1 0
719 0 720 -3410 0 -3410 0 0 -721z"/>
<path d="M3794 10781 c-8 -8 -4 -3570 4 -3575 17 -10 59 -14 72 -6 8 5 22 4
31 -1 11 -6 20 -5 24 1 3 5 15 6 28 1 12 -5 34 -5 48 -1 15 4 32 4 40 0 7 -5
20 -5 29 0 9 5 22 5 30 0 8 -5 18 -6 23 -3 13 8 97 9 97 1 0 -4 14 -3 30 2 17
5 30 6 30 2 0 -8 79 -7 87 1 3 3 16 2 29 -3 14 -6 26 -6 29 0 3 6 15 6 30 0
16 -6 25 -6 25 0 0 6 9 6 25 0 15 -6 27 -6 30 0 3 5 15 6 29 0 12 -4 29 -5 36
0 7 5 24 4 36 0 14 -6 26 -5 29 0 3 6 15 6 30 0 15 -6 27 -6 30 0 3 5 15 6 29
0 12 -4 29 -5 36 0 7 5 24 4 36 0 14 -6 26 -5 29 0 3 6 15 6 29 0 13 -5 26 -6
29 -3 8 8 87 9 87 1 0 -4 14 -3 30 2 17 5 30 6 30 2 0 -8 84 -7 97 1 5 3 15 2
23 -3 8 -5 21 -5 30 0 9 5 22 5 29 0 8 -4 26 -4 41 0 15 4 33 4 41 0 7 -5 20
-5 29 0 9 5 22 5 30 0 8 -5 21 -5 30 0 9 5 22 5 30 0 8 -5 21 -5 30 0 9 5 23
4 32 -1 10 -6 19 -6 23 0 3 6 15 7 28 2 12 -5 34 -5 48 -1 15 4 32 4 40 0 7
-5 20 -5 29 0 9 5 22 5 30 0 8 -5 21 -5 30 0 9 5 22 5 30 0 8 -5 21 -5 30 0 9
5 22 5 30 0 8 -5 21 -5 30 0 9 5 22 5 29 0 8 -4 26 -4 41 0 15 4 33 4 41 0 7
-5 20 -5 29 0 9 5 22 5 30 0 8 -5 21 -5 30 0 9 5 22 5 30 0 8 -5 21 -5 30 0 9
5 23 4 32 -1 10 -6 19 -6 23 0 3 6 15 7 28 2 12 -5 34 -5 48 -1 15 4 32 4 40
0 7 -5 20 -5 29 0 9 5 22 5 30 0 8 -5 21 -5 30 0 9 5 22 5 30 0 8 -5 21 -5 30
0 9 5 22 5 30 0 8 -5 21 -5 30 0 9 5 22 5 29 0 8 -4 26 -4 41 0 15 4 33 4 41
0 7 -5 20 -5 29 0 9 5 22 5 30 0 8 -5 21 -5 30 0 9 5 22 5 30 0 8 -5 21 -5 30
0 9 5 23 4 32 -1 10 -6 19 -6 23 0 3 6 15 7 28 2 12 -5 34 -5 48 -1 15 4 32 4
40 0 7 -5 20 -5 29 0 9 5 22 5 30 0 8 -5 21 -5 30 0 9 5 22 5 30 0 8 -5 21 -5
30 0 9 5 22 5 30 0 8 -5 21 -5 30 0 9 5 22 5 29 0 8 -4 26 -4 41 0 15 4 33 4
41 0 7 -5 20 -5 29 0 9 5 22 5 30 0 8 -5 21 -5 30 0 9 5 22 5 30 0 8 -5 21 -5
30 0 9 5 23 4 32 -1 10 -6 19 -6 23 0 3 6 15 7 28 2 12 -5 34 -5 48 -1 15 4
32 4 40 0 7 -5 20 -5 29 0 9 5 22 5 30 0 8 -5 18 -6 23 -3 13 8 97 9 97 1 0
-4 14 -3 30 2 17 5 30 6 30 2 0 -8 79 -7 87 1 3 3 16 2 29 -3 14 -6 26 -6 29
0 3 6 15 6 30 0 15 -6 27 -6 30 0 3 6 15 6 30 0 15 -6 25 -6 25 0 0 5 12 5 30
0 17 -5 30 -5 30 -1 0 8 58 6 67 -3 3 -3 14 -1 24 4 11 7 20 7 24 0 3 -6 15
-6 30 0 13 5 27 6 29 1 6 -9 54 -6 63 3 3 3 14 1 24 -4 11 -7 20 -7 24 0 3 5
15 6 28 1 12 -5 34 -5 48 -1 15 4 32 4 40 0 7 -5 20 -5 29 0 9 5 22 5 30 0 8
-5 18 -6 23 -3 13 8 97 9 97 1 0 -4 13 -3 30 2 16 5 30 6 30 2 0 -8 79 -7 87
1 3 3 16 2 29 -3 14 -6 26 -6 29 0 3 6 15 6 30 0 16 -6 25 -6 25 0 0 6 9 6 25
0 15 -6 27 -6 30 0 3 5 15 6 29 0 12 -4 29 -5 36 0 7 5 24 4 36 0 14 -6 26 -5
29 0 3 6 15 6 30 0 15 -6 27 -6 30 0 3 5 15 6 29 0 12 -4 29 -5 36 0 7 5 24 4
36 0 14 -6 26 -5 29 0 3 6 15 6 29 0 13 -5 26 -6 29 -3 8 8 87 9 87 1 0 -4 14
-3 30 2 17 5 30 5 30 1 0 -4 27 -4 60 -1 33 3 60 3 60 -1 0 -4 14 -4 30 1 16
5 30 6 30 2 0 -8 79 -7 87 1 3 3 16 2 29 -3 14 -6 26 -6 29 0 3 6 15 6 30 0
15 -6 27 -6 30 0 3 6 15 6 30 0 15 -6 25 -6 25 0 0 5 12 5 30 0 17 -5 30 -5
30 -1 0 8 58 6 67 -3 3 -3 14 -1 24 4 11 7 20 7 24 0 3 -6 15 -6 30 0 13 5 27
6 29 1 6 -9 54 -6 63 3 3 3 14 1 24 -4 11 -7 20 -7 24 0 3 5 15 6 28 1 12 -5
34 -5 48 -1 15 4 32 4 40 0 7 -5 20 -5 29 0 9 5 22 5 30 0 8 -5 19 -6 24 -3 6
4 27 6 48 4 l38 -2 0 1791 c0 984 -3 1791 -7 1791 -23 4 -6805 3 -6809 0z"/>
<path d="M3838 4322 l-48 -3 0 -2160 0 -2159 3410 0 3410 0 0 2159 0 2159 -61
4 c-34 1 -63 0 -65 -3 -2 -4 -19 -4 -37 0 -18 5 -41 5 -52 1 -11 -4 -33 -4
-50 0 -17 4 -38 4 -48 1 -10 -4 -45 -4 -78 -1 -32 3 -59 3 -59 -1 0 -3 -19 -3
-42 1 -24 5 -48 4 -54 -1 -6 -5 -13 -7 -16 -4 -6 6 -43 7 -146 3 -39 -2 -72
-1 -72 2 0 3 -24 4 -52 3 -75 -3 -87 -4 -146 -3 -29 0 -57 -2 -61 -4 -4 -3
-13 -1 -20 3 -7 5 -28 5 -47 1 -18 -4 -35 -5 -38 -3 -7 7 -266 9 -266 2 0 -4
-19 -3 -42 1 -24 5 -48 4 -54 -1 -6 -5 -13 -7 -16 -4 -6 6 -43 7 -146 3 -39
-2 -72 -1 -72 2 0 3 -24 4 -52 3 -75 -3 -87 -4 -146 -3 -29 0 -57 -2 -61 -4
-4 -3 -13 -1 -20 3 -7 5 -28 5 -47 1 -18 -4 -35 -5 -38 -3 -7 7 -266 9 -266 2
0 -4 -19 -3 -42 1 -24 5 -48 4 -54 -1 -6 -5 -13 -7 -16 -4 -6 6 -43 7 -146 3
-39 -2 -72 -1 -72 2 0 3 -24 4 -52 3 -75 -3 -87 -4 -146 -3 -29 0 -57 -2 -61
-4 -4 -3 -13 -1 -20 3 -7 5 -28 5 -47 1 -18 -4 -35 -5 -38 -3 -7 7 -266 9
-266 2 0 -4 -19 -3 -42 1 -24 5 -48 4 -54 -1 -6 -5 -13 -7 -16 -4 -6 6 -43 7
-146 3 -39 -2 -72 -1 -72 2 0 3 -24 4 -52 3 -75 -3 -87 -4 -146 -3 -29 0 -57
-2 -61 -4 -4 -3 -13 -1 -20 3 -7 5 -28 5 -47 1 -18 -4 -35 -5 -38 -3 -7 7
-266 9 -266 2 0 -4 -19 -3 -42 1 -24 5 -48 4 -54 -1 -6 -5 -13 -7 -16 -4 -6 6
-43 7 -146 3 -39 -2 -72 -1 -72 2 0 3 -24 4 -52 3 -75 -3 -87 -4 -146 -3 -29
0 -57 -2 -61 -4 -4 -3 -13 -1 -20 3 -7 5 -28 5 -47 1 -18 -4 -35 -5 -38 -3 -7
7 -266 9 -266 2 0 -4 -19 -3 -42 1 -24 5 -48 4 -54 -1 -6 -5 -13 -7 -16 -4 -6
6 -43 7 -146 3 -39 -2 -72 -1 -72 2 0 3 -24 4 -52 3 -75 -3 -87 -4 -146 -3
-29 0 -57 -2 -61 -4 -4 -3 -13 -1 -20 3 -7 5 -28 5 -47 1 -18 -4 -35 -5 -38
-3 -7 7 -266 9 -266 2 0 -4 -19 -3 -42 1 -24 5 -48 4 -54 -1 -6 -5 -13 -7 -16
-4 -6 6 -43 7 -146 3 -39 -2 -72 -1 -72 2 0 6 -120 3 -127 -3 -2 -3 -17 -2
-31 1 -15 4 -48 6 -74 4z"/>
</g>
</svg>
